<?xml version="1.0" encoding="utf-8"?>
<!-- Generator: Adobe Illustrator 24.0.1, SVG Export Plug-In . SVG Version: 6.00 Build 0)  -->
<svg version="1.1" id="Capa_1" xmlns="http://www.w3.org/2000/svg" xmlns:xlink="http://www.w3.org/1999/xlink" x="0px" y="0px"
	 viewBox="0 0 480 480" style="enable-background:new 0 0 480 480;" xml:space="preserve">
<style type="text/css">
	.st0{fill:none;stroke:#000000;stroke-miterlimit:10;}
	.st0 { stroke-dasharray: 1200; stroke-dashoffset: 1200; animation: dash 4s linear forwards infinite; }
	@keyframes dash { to { stroke-dashoffset: 0; } }
</style>
<g>
	<circle class="st0" cx="136.5" cy="217.5" r="12.8"/>
	<path class="st0" d="M388.2,239.1c0-13.6,7.1-23.8,13.4-32.8c6.2-8.9,12.6-18.1,8.1-28.3c-2.6-5.9-8.5-9.4-16-9.6
		c-9.7-0.2-22.4,4.9-34.7,14c-7.2,5.3-16.7,13.8-25.1,26.1c-10-11.3-23.8-22.7-39.2-32c0.5-11.2-0.1-32.2-10.2-43.5
		c-4.6-5.1-10.6-7.8-17.4-7.8c-24.1,0-56.5,11.9-73.3,26.5c-29.7,2.9-54.5,14.2-70.8,23.9c-21.5,12.8-40.2,29.7-49.9,45.2l-4.1,6.6
		l11.2,11.7l-11.2,11.7l4.1,6.6c9.7,15.5,28.4,32.4,49.9,45.2c15.9,9.5,39.8,20.5,68.6,23.7c16,15.5,50.3,28.5,75.5,28.5
		c6.8,0,12.8-2.7,17.4-7.8c10.7-11.9,10.8-34.6,10.1-45.3c15.4-9.3,29.2-20.7,39.2-32c8.4,12.3,17.9,20.8,25.1,26.1
		c12.1,8.9,24.4,14,34.1,14c0.2,0,0.4,0,0.6,0c7.6-0.2,13.4-3.7,16-9.6c4.5-10.2-1.9-19.4-8.1-28.3
		C395.3,262.9,388.2,252.7,388.2,239.1z M269.6,146.4c3.1,3.4,4.6,11.4,5,19.6c-12.2-5.5-26.8-10.5-43-13.1
		c11.8-4.6,25-7.6,35.5-7.6C268.2,145.2,268.8,145.5,269.6,146.4z M267.1,334.8c-11.6,0-26.2-3.6-38.9-9
		c17.7-2.4,33.5-7.7,46.5-13.6c-0.4,11.1-3,19-5.2,21.5C268.8,334.5,268.2,334.8,267.1,334.8z M283.2,285.2
		c-16.8,10-43.5,22-75.1,22c-11.7,0-22.6-1.6-32.7-4.2c12.8-18.7,19.7-41,19.7-63.9c0-18-4.1-35.3-12.2-51.2l-17.8,9
		c6.7,13.1,10,27.3,10,42.2c0,20.9-6.9,41-19.7,57.3c-8.6-3.5-16.1-7.4-22.2-11.1c-18.1-10.7-31.1-22.9-38.7-32.4l13.2-13.9
		l-13.2-13.9c7.6-9.5,20.7-21.7,38.7-32.4c16.8-9.9,43.4-21.8,74.9-21.8c31.7,0,58.3,11.9,75.1,22c20,11.9,33.7,25.4,40.8,35.3
		c-0.7,3.8-1.2,7.9-1.4,10l0,0.5l0,0.5c0,2.5,0.3,6.6,1.2,10.9C316.7,260,303.1,273.4,283.2,285.2z M372.9,281.3
		c-11.9-8.2-22.1-20.1-28.9-33.6c-0.6-1.5-1.2-4.4-1.3-8.2c0.3-3.3,0.9-7.6,1.4-9.1c12.9-25.6,34.8-38.9,45.1-41.6
		c-1.2,1.9-2.8,4.2-4.1,6c-7.2,10.3-17,24.4-17,44.2s9.8,33.9,17,44.2c1.3,1.8,2.8,4,4,6C385.4,288.3,379.7,286,372.9,281.3z"/>
</g>
</svg>
